<svg id="SvgjsSvg1041" width="288" height="288" xmlns="http://www.w3.org/2000/svg" version="1.1" xmlns:xlink="http://www.w3.org/1999/xlink" xmlns:svgjs="http://svgjs.com/svgjs"><defs id="SvgjsDefs1042"></defs><g id="SvgjsG1043"><svg xmlns="http://www.w3.org/2000/svg" viewBox="0 0 181.424 126.936" width="288" height="288"><path d="M51.895 106.535a9.039 9.039 0 0 1-6.018-2.284L0 63.469l48.427-43.05a9.066 9.066 0 0 1 12.042 13.555L27.296 63.469l30.628 27.217a9.072 9.072 0 0 1-6.018 15.85Zm81.1-.017 48.427-43.05-45.876-40.782a9.065 9.065 0 0 0-12.038 13.554l30.628 27.228-33.176 29.484a9.068 9.068 0 0 0 12.036 13.566Zm-42.408 12.846 18.133-108.8a9.063 9.063 0 1 0-17.878-2.986l-18.134 108.8a9.066 9.066 0 0 0 7.452 10.438 9.616 9.616 0 0 0 1.5.119 9.068 9.068 0 0 0 8.931-7.571Z" fill="#242424" class="color000 svgShape"></path></svg></g></svg>